<svg width="9" height="15" viewBox="0 0 9 15" fill="none" xmlns="http://www.w3.org/2000/svg">
<path d="M8.088 9.704C8.088 10.7387 7.78933 11.5387 7.192 12.104C6.60533 12.6693 5.74667 12.968 4.616 13V14.264H2.856V13H0.0880001V1.8H2.856V0.695999H4.616V1.848C5.61867 1.95467 6.376 2.24267 6.888 2.712C7.41067 3.17067 7.672 3.8 7.672 4.6C7.672 5.13333 7.54933 5.592 7.304 5.976C7.05867 6.36 6.67467 6.68533 6.152 6.952V7C6.83467 7.256 7.32533 7.59733 7.624 8.024C7.93333 8.45067 8.088 9.01067 8.088 9.704ZM2.392 6.264H3.928C4.376 6.264 4.72267 6.14133 4.968 5.896C5.224 5.64 5.352 5.288 5.352 4.84C5.352 4.40267 5.208 4.08267 4.92 3.88C4.64267 3.67733 4.21067 3.576 3.624 3.576H2.392V6.264ZM4.248 11.224C4.74933 11.224 5.13333 11.08 5.4 10.792C5.67733 10.504 5.816 10.0933 5.816 9.56C5.816 8.99467 5.65067 8.584 5.32 8.328C4.98933 8.072 4.456 7.944 3.72 7.944H2.392V11.224H4.248Z" fill="white" fill-opacity="0.56"/>
</svg>
