<svg width="16" height="16" viewBox="0 0 16 16" fill="none" xmlns="http://www.w3.org/2000/svg">
<path d="M11.515 12.3825C13.165 11.48 14.25 9.96501 14.25 8.25001C14.2429 7.34896 13.9496 6.47349 13.4125 5.75001H13.5C13.5452 5.74989 13.5896 5.7375 13.6283 5.71417C13.6671 5.69083 13.6987 5.65743 13.72 5.61751C13.7401 5.57842 13.7495 5.53472 13.7473 5.49083C13.7451 5.44694 13.7314 5.4044 13.7075 5.36751L12.7075 3.86751C12.6854 3.83219 12.6549 3.80294 12.6187 3.78242C12.5824 3.76191 12.5416 3.75076 12.5 3.75001H11.5C11.6568 3.66177 11.8014 3.55335 11.93 3.42751C12.1118 3.24578 12.2558 3.0298 12.3537 2.79207C12.4515 2.55434 12.5012 2.29958 12.5 2.04251V0.500009C12.5 0.433705 12.4737 0.370117 12.4268 0.323233C12.3799 0.276348 12.3163 0.250009 12.25 0.250009H10.7075C10.4503 0.24968 10.1957 0.300088 9.95801 0.398345C9.72036 0.496602 9.50444 0.640778 9.3226 0.822614C9.14077 1.00445 8.99659 1.22037 8.89834 1.45802C8.80008 1.69566 8.74967 1.95035 8.75 2.20751C8.74689 2.59168 8.8868 2.96328 9.1425 3.25001C8.75243 3.57674 8.25881 3.75398 7.75 3.75001V3.75001C7.90682 3.66177 8.05139 3.55335 8.18 3.42751C8.36182 3.24578 8.50582 3.0298 8.60366 2.79207C8.70149 2.55434 8.75123 2.29958 8.75 2.04251V0.500009C8.75 0.433705 8.72366 0.370117 8.67678 0.323233C8.62989 0.276348 8.5663 0.250009 8.5 0.250009H6.9575C6.70034 0.24968 6.44565 0.300088 6.20801 0.398345C5.97036 0.496602 5.75444 0.640778 5.5726 0.822614C5.39077 1.00445 5.24659 1.22037 5.14834 1.45802C5.05008 1.69566 4.99967 1.95035 5 2.20751C4.99689 2.59168 5.1368 2.96328 5.3925 3.25001C5.00243 3.57674 4.50881 3.75398 4 3.75001H3.5C3.45882 3.75022 3.41834 3.7606 3.38214 3.78023C3.34594 3.79985 3.31515 3.82812 3.2925 3.86251L2.2925 5.36251C2.26863 5.3994 2.2549 5.44194 2.25271 5.48583C2.25051 5.52972 2.25993 5.57342 2.28 5.61251C2.30058 5.65336 2.33198 5.68778 2.37077 5.71203C2.40956 5.73627 2.45426 5.74941 2.5 5.75001H2.5875C2.05037 6.47349 1.75709 7.34896 1.75 8.25001C1.75 9.97501 2.8475 11.5 4.5 12.395L5.315 13.3475C5.57252 13.6425 5.72544 14.0142 5.75 14.405L4.83 15.3225C4.79531 15.3577 4.77181 15.4023 4.76247 15.4508C4.75312 15.4993 4.75836 15.5495 4.7775 15.595C4.79575 15.6395 4.82644 15.6778 4.86591 15.7053C4.90537 15.7328 4.95193 15.7483 5 15.75H11C11.0494 15.7498 11.0975 15.7349 11.1385 15.7073C11.1794 15.6797 11.2112 15.6407 11.23 15.595C11.2491 15.5495 11.2544 15.4993 11.245 15.4508C11.2357 15.4023 11.2122 15.3577 11.1775 15.3225L10.25 14.4C10.2717 14.0119 10.4211 13.6419 10.675 13.3475L11.515 12.3825ZM11.5725 3.07251C11.4105 2.72722 11.2791 2.36833 11.18 2.00001H12V2.04251C12.0004 2.23393 11.9628 2.42353 11.8894 2.60033C11.816 2.77713 11.7083 2.93762 11.5725 3.07251V3.07251ZM12 1.50001H11.0675C11.0209 1.25212 10.9892 1.00168 10.9725 0.750009H12V1.50001ZM9.6775 1.17751C9.8927 0.960972 10.1711 0.818294 10.4725 0.770009C10.5328 1.67056 10.7645 2.55131 11.155 3.36501C10.963 3.45385 10.754 3.49991 10.5425 3.50001C10.4032 3.50041 10.2652 3.47322 10.1365 3.42001C10.0078 3.3668 9.89086 3.28863 9.7925 3.19001L9.56 2.95751C9.46138 2.85915 9.38321 2.74223 9.33 2.61351C9.27679 2.48478 9.2496 2.3468 9.25 2.20751C9.24961 2.01609 9.2872 1.82649 9.36058 1.64969C9.43396 1.47289 9.54168 1.3124 9.6775 1.17751V1.17751ZM9.5 3.59501C9.56162 3.65288 9.62858 3.70478 9.7 3.75001H9.3C9.3675 3.70251 9.4325 3.65001 9.5 3.59501ZM7.825 3.07251C7.6621 2.7273 7.52992 2.36841 7.43 2.00001H8.25V2.04251C8.25039 2.23393 8.2128 2.42353 8.13942 2.60033C8.06604 2.77713 7.95832 2.93762 7.8225 3.07251H7.825ZM8.25 1.50001H7.3175C7.27094 1.25212 7.23922 1.00168 7.2225 0.750009H8.25V1.50001ZM5.9275 1.17751C6.1427 0.960972 6.42106 0.818294 6.7225 0.770009C6.78281 1.67056 7.01446 2.55131 7.405 3.36501C7.21302 3.45385 7.00404 3.49991 6.7925 3.50001C6.65321 3.50041 6.51523 3.47322 6.3865 3.42001C6.25777 3.3668 6.14086 3.28863 6.0425 3.19001L5.81 2.95751C5.71138 2.85915 5.63321 2.74223 5.58 2.61351C5.52679 2.48478 5.4996 2.3468 5.5 2.20751C5.49961 2.01609 5.5372 1.82649 5.61058 1.64969C5.68396 1.47289 5.79168 1.3124 5.9275 1.17751V1.17751ZM5.75 3.59501C5.81162 3.65288 5.87858 3.70478 5.95 3.75001H5.55C5.6175 3.70251 5.6825 3.65001 5.75 3.59501ZM3.635 4.25001H12.365L13.0325 5.25001H2.9675L3.635 4.25001ZM2.25 8.25001C2.26108 7.32601 2.60758 6.43753 3.225 5.75001H12.775C13.3924 6.43753 13.7389 7.32601 13.75 8.25001C13.75 10.73 11.17 12.75 8 12.75C4.83 12.75 2.25 10.73 2.25 8.25001ZM5.6025 15.25L6.1025 14.75H9.8975L10.3975 15.25H5.6025ZM9.765 14.25H6.235C6.18572 13.7969 6.00103 13.3691 5.705 13.0225L5.56 12.8525C7.14579 13.3842 8.86171 13.3842 10.4475 12.8525L10.3025 13.0225C10.0028 13.3676 9.81534 13.7957 9.765 14.25V14.25Z" fill="white"/>
</svg>
