<svg width="16" height="16" viewBox="0 0 16 16" fill="none" xmlns="http://www.w3.org/2000/svg">
<g clip-path="url(#clip0)">
<path d="M7.99467 16C7.942 16 7.88867 15.9873 7.84067 15.962L0.179333 11.962C0.0693333 11.9047 0 11.7907 0 11.6667V4.16665C0 4.05132 0.06 3.94398 0.158 3.88332C0.256 3.82265 0.379333 3.81732 0.482 3.86865L8.14333 7.70199C8.256 7.75866 8.32733 7.87399 8.32733 7.99999V15.6667C8.32733 15.7833 8.26667 15.8913 8.16667 15.952C8.11467 15.984 8.05467 16 7.99467 16ZM0.666667 11.4647L7.66133 15.1167V8.20599L0.666667 4.70598V11.4647Z" fill="white"/>
<path d="M8.00533 16C7.94533 16 7.88533 15.984 7.83266 15.952C7.73333 15.8913 7.672 15.7833 7.672 15.6667V7.99998C7.672 7.87398 7.74333 7.75865 7.856 7.70198L15.5173 3.86864C15.6193 3.81664 15.7433 3.82198 15.8413 3.88331C15.94 3.94398 16 4.05131 16 4.16664V11.6667C16 11.7907 15.9307 11.9047 15.8207 11.962L8.15933 15.962C8.11133 15.9873 8.058 16 8.00533 16V16ZM8.33866 8.20598V15.1167L15.3333 11.4647V4.70598L8.33866 8.20598ZM15.6667 11.6667H15.6733H15.6667Z" fill="white"/>
<path d="M0.333294 4.49998C0.210627 4.49998 0.0932938 4.43265 0.0346271 4.31598C-0.0480396 4.15131 0.0192938 3.95131 0.18396 3.86865L7.85596 0.0353128C7.94996 -0.0113539 8.06063 -0.0113539 8.15396 0.0353128L15.8153 3.86865C15.98 3.95131 16.0466 4.15131 15.9646 4.31598C15.882 4.48065 15.6826 4.54665 15.5173 4.46531L8.0053 0.70598L0.482627 4.46465C0.434627 4.48865 0.383961 4.49998 0.333294 4.49998V4.49998Z" fill="white"/>
<path d="M11.9999 10C11.8159 10 11.6666 9.85066 11.6666 9.66666V6.206L4.18929 2.46466C4.02462 2.38266 3.95796 2.182 4.04062 2.01733C4.12329 1.85266 4.32329 1.78666 4.48796 1.868L12.1493 5.70133C12.2619 5.75866 12.3333 5.874 12.3333 6V9.66666C12.3333 9.85066 12.1839 10 11.9999 10V10Z" fill="white"/>
</g>
<defs>
<clipPath id="clip0">
<rect width="16" height="16" fill="white"/>
</clipPath>
</defs>
</svg>
