<svg width="173" height="173" viewBox="0 0 173 173" fill="none" xmlns="http://www.w3.org/2000/svg">
    <path d="M162.361 44.9382C155.906 33.1573 146.797 23.0416 135.754 15.3926C124.712 7.74361 112.039 2.77159 98.7413 0.870565C85.4434 -1.03046 71.8855 0.191746 59.142 4.44034C46.3984 8.68893 34.8195 15.8471 25.3228 25.3477L35.6269 35.6476C43.5241 27.7472 53.1528 21.7947 63.7499 18.2617C74.347 14.7287 85.6214 13.7124 96.6795 15.2932C107.738 16.874 118.276 21.0086 127.458 27.3693C136.641 33.7299 144.216 42.1419 149.584 51.9385L162.361 44.9382Z"
          fill="#FFCA7A" fill-opacity="0.35"/>
    <path d="M147.665 147.665C144.246 151.084 140.546 154.21 136.604 157.011L128.067 144.996C131.337 142.672 134.406 140.079 137.242 137.242L147.665 147.665Z"
          fill="#FF8484" fill-opacity="0.35"/>
    <path d="M25.3353 25.3353C9.91896 40.7516 0.892713 61.4208 0.0627069 83.2069C-0.767299 104.993 6.66016 126.289 20.8588 142.834C35.0575 159.378 54.98 169.951 76.6398 172.436C98.2997 174.921 120.099 169.136 137.676 156.237L128.956 144.354C114.374 155.055 96.289 159.854 78.32 157.793C60.351 155.731 43.8233 146.96 32.0441 133.234C20.2649 119.509 14.103 101.842 14.7916 83.7681C15.4802 65.6943 22.9684 48.5471 35.7577 35.7577L25.3353 25.3353Z"
          fill="#82ADFF"/>
    <path d="M168.258 114.747C163.971 127.156 156.915 138.426 147.626 147.704L137.214 137.279C144.921 129.582 150.775 120.231 154.332 109.936L168.258 114.747Z"
          fill="#55AF7F" fill-opacity="0.35"/>
    <path d="M162.351 44.9198C168.156 55.5089 171.679 67.1961 172.694 79.2291C173.709 91.2621 172.193 103.374 168.244 114.786L154.321 109.968C157.597 100.5 158.855 90.451 158.013 80.4675C157.17 70.4841 154.247 60.7875 149.431 52.0021L162.351 44.9198Z"
          fill="#9F9494" fill-opacity="0.35"/>
</svg>
