<svg width="32" height="24" viewBox="0 0 32 24" fill="none" xmlns="http://www.w3.org/2000/svg">
<path d="M30.2251 23.5862H1.7749C0.794483 23.5862 0 22.7917 0 21.8113V2.18868C0 1.20827 0.794483 0.413788 1.7749 0.413788H30.2251C31.2055 0.413788 32 1.20827 32 2.18868V21.8113C32 22.7917 31.2055 23.5862 30.2251 23.5862Z" fill="#FF8267"/>
<path d="M32 3.17241H0V7.5862H32V3.17241Z" fill="black"/>
<path d="M8.27585 11.4483H3.31033C3.00578 11.4483 2.75861 11.2011 2.75861 10.8965C2.75861 10.592 3.00578 10.3448 3.31033 10.3448H8.27585C8.5804 10.3448 8.82757 10.592 8.82757 10.8965C8.82757 11.2011 8.5804 11.4483 8.27585 11.4483Z" fill="white"/>
<path d="M15.4483 11.4483H10.4828C10.1782 11.4483 9.93103 11.2011 9.93103 10.8965C9.93103 10.592 10.1782 10.3448 10.4828 10.3448H15.4483C15.7528 10.3448 16 10.592 16 10.8965C16 11.2011 15.7528 11.4483 15.4483 11.4483Z" fill="white"/>
<path d="M3.86205 14.2069H3.31033C3.00578 14.2069 2.75861 13.9597 2.75861 13.6552C2.75861 13.3506 3.00578 13.1034 3.31033 13.1034H3.86205C4.16661 13.1034 4.41378 13.3506 4.41378 13.6552C4.41378 13.9597 4.16661 14.2069 3.86205 14.2069Z" fill="white"/>
<path d="M7.17245 14.2069H6.069C5.76445 14.2069 5.51727 13.9597 5.51727 13.6552C5.51727 13.3506 5.76445 13.1034 6.069 13.1034H7.17245C7.477 13.1034 7.72417 13.3506 7.72417 13.6552C7.72417 13.9597 7.477 14.2069 7.17245 14.2069Z" fill="white"/>
<path d="M9.93102 14.2069H9.3793C9.07475 14.2069 8.82758 13.9597 8.82758 13.6552C8.82758 13.3506 9.07475 13.1034 9.3793 13.1034H9.93102C10.2356 13.1034 10.4827 13.3506 10.4827 13.6552C10.4827 13.9597 10.2356 14.2069 9.93102 14.2069Z" fill="white"/>
<path d="M13.2414 14.2069H12.1379C11.8334 14.2069 11.5862 13.9597 11.5862 13.6552C11.5862 13.3506 11.8334 13.1034 12.1379 13.1034H13.2414C13.5459 13.1034 13.7931 13.3506 13.7931 13.6552C13.7931 13.9597 13.5459 14.2069 13.2414 14.2069Z" fill="white"/>
<path d="M15.4483 14.2069C15.3048 14.2069 15.1614 14.1462 15.0565 14.0469C14.9572 13.9421 14.8965 13.8041 14.8965 13.6552C14.8965 13.5117 14.9572 13.3683 15.0565 13.2634C15.2607 13.0593 15.6303 13.0593 15.84 13.2634C15.9393 13.3683 16 13.5117 16 13.6552C16 13.7986 15.9393 13.9421 15.84 14.0469C15.7352 14.1462 15.5917 14.2069 15.4483 14.2069Z" fill="white"/>
<path d="M25.3793 17.5172C25.3793 19.3457 23.8974 20.8276 22.069 20.8276C20.2405 20.8276 18.7586 19.3457 18.7586 17.5172C18.7586 15.6888 20.2405 14.2069 22.069 14.2069C23.8974 14.2069 25.3793 15.6888 25.3793 17.5172Z" fill="#F58167"/>
<path d="M29.2414 17.5172C29.2414 19.3457 27.7594 20.8276 25.931 20.8276C24.1026 20.8276 22.6207 19.3457 22.6207 17.5172C22.6207 15.6888 24.1026 14.2069 25.931 14.2069C27.7594 14.2069 29.2414 15.6888 29.2414 17.5172Z" fill="#FFF6CB"/>
</svg>
