<svg width="24" height="24" viewBox="0 0 24 24" fill="none" xmlns="http://www.w3.org/2000/svg">
<path d="M12.0011 0C5.37394 0 0.00146484 5.37288 0.00146484 11.9998C0.00146484 18.6266 5.37394 24 12.0011 24C18.6282 24 24.0013 18.627 24.0013 11.9998C24.0013 5.37256 18.6282 0 12.0011 0ZM17.7055 8.6356L16.5658 9.77536L14.2457 7.45544L13.3655 8.3356L15.6856 10.6557L9.99506 16.3458L7.67514 14.0261L6.79498 14.9062L9.1149 17.2262L8.54786 17.7932L8.53706 17.7824C8.47418 17.8859 8.37194 17.9614 8.2505 17.9884L6.08706 18.4708C6.05466 18.4781 6.0217 18.4816 5.98914 18.4816C5.87106 18.4816 5.75634 18.4351 5.6713 18.3498C5.56218 18.2411 5.51674 18.0841 5.55034 17.9336L6.0325 15.7708C6.0597 15.6494 6.13538 15.547 6.23874 15.4842L6.22778 15.4733L15.3854 6.31528C15.5196 6.18128 15.7377 6.18128 15.8719 6.31568L17.7057 8.14904C17.8399 8.28328 17.8399 8.50136 17.7055 8.6356Z" fill="#F1A291"/>
</svg>
